Coordinates
version=1
nRows=5
nColumns=63
inDegrees=yes

Units are S.I. units (second, meters, Newtons, ...)
If the header above contains a line with 'inDegrees', this indicates whether rotational values are in degrees (yes) or radians (no).

endheader
time	pelvis_tilt	pelvis_list	pelvis_rotation	pelvis_tx	pelvis_ty	pelvis_tz	hip_flexion_r	hip_adduction_r	hip_rotation_r	knee_angle_r	knee_angle_r_beta	ankle_angle_r	subtalar_angle_r	mtp_angle_r	hip_flexion_l	hip_adduction_l	hip_rotation_l	knee_angle_l	knee_angle_l_beta	ankle_angle_l	subtalar_angle_l	mtp_angle_l	L5_S1_Flex_Ext	L5_S1_Lat_Bending	L5_S1_axial_rotation	L4_L5_Flex_Ext	L4_L5_Lat_Bending	L4_L5_axial_rotation	L3_L4_Flex_Ext	L3_L4_Lat_Bending	L3_L4_axial_rotation	L2_L3_Flex_Ext	L2_L3_Lat_Bending	L2_L3_axial_rotation	L1_L2_Flex_Ext	L1_L2_Lat_Bending	L1_L2_axial_rotation	L1_T12_Flex_Ext	L1_T12_Lat_Bending	L1_T12_axial_rotation	Abs_r3	Abs_r2	Abs_r1	Abs_t1	Abs_t2	neck_flexion	neck_bending	neck_rotation	arm_flex_r	arm_add_r	arm_rot_r	elbow_flex_r	pro_sup_r	wrist_flex_r	wrist_dev_r	arm_flex_l	arm_add_l	arm_rot_l	elbow_flex_l	pro_sup_l	wrist_flex_l	wrist_dev_l
      0.00000000	     -2.33323715	     -5.75950285	     97.64271211	      0.23259079	      0.76305997	      0.62038767	     -1.41766030	     -0.81059782	      1.89469419	      1.53326294	      0.02676049	     16.59903204	     -7.24092098	      0.00000000	      2.97675890	      0.65755513	     -7.10675710	      6.98692844	      0.12194491	     24.04277083	     12.86676456	      0.00000000	      0.11055832	      0.00145824	     -0.52470093	      0.20531786	      0.00193945	     -0.55749474	      0.18163627	      0.00354555	     -0.55749474	      0.12635711	      0.00354555	     -0.45911332	      0.10266446	      0.00297363	     -0.42631951	      0.06317303	      0.00225881	     -0.39352570	      0.78970706	      0.01649585	     -2.91822918	      0.00000000	      0.00000000	     15.14116184	     -1.26652386	      4.59050696	     19.57720582	    -17.24141055	     71.11411751	     61.49789546	     88.48400359	      8.66968342	      5.17569402	     25.66490702	    -17.87463239	     81.60244230	     57.15700623	     64.20242270	     19.01021739	      5.55046697
      0.02000000	     -2.22340614	     -6.13275175	     96.67360550	      0.23306041	      0.76208087	      0.62082664	     -0.78473391	     -0.81599648	      5.30805339	      1.40338223	      0.02449364	     17.30367218	    -10.41387721	      0.00000000	      3.37283466	      0.59370488	     -8.09012661	      7.37932938	      0.12879359	     23.95153302	     12.77467891	      0.00000000	      0.13816017	      0.02037837	     -0.55668777	      0.25657724	      0.02710323	     -0.59148075	      0.22698334	      0.04954797	     -0.59148075	      0.15790325	      0.04954797	     -0.48710180	      0.12829553	      0.04155558	     -0.45230881	      0.07894472	      0.03156610	     -0.41751582	      0.98686425	      0.23052422	     -3.09613035	      0.00000000	      0.00000000	     16.05065120	     -0.86120167	      5.84159803	     20.74324519	    -17.55868198	     73.06373069	     62.19517868	     88.57914002	      8.41509445	      4.57849332	     22.92539538	    -18.50274139	     75.84984489	     58.04411206	     69.33076804	     21.26494404	      5.21259575
      0.04000000	     -2.17985617	     -6.38675097	     95.88942238	      0.23344276	      0.76125597	      0.62154200	     -0.29223856	     -0.86791126	      7.12584532	      1.39449867	      0.02433859	     17.94140363	    -11.66368418	      0.00000000	      3.68435841	      0.57054912	     -8.91660890	      7.71947365	      0.13473023	     24.00465320	     12.71533373	      0.00000000	      0.14773455	      0.03460282	     -0.59114610	      0.27435784	      0.04602176	     -0.62809273	      0.24271310	      0.08413330	     -0.62809273	      0.16884582	      0.08413330	     -0.51725283	      0.13718631	      0.07056208	     -0.48030620	      0.08441552	      0.05359977	     -0.44335957	      1.05525315	      0.39143406	     -3.28777724	      0.00000000	      0.00000000	     16.75671226	     -0.76008665	      6.59133886	     21.69195822	    -17.72844955	     74.53516459	     62.74685131	     88.62210130	      8.47625414	      4.19276083	     21.09397728	    -18.87570440	     71.71784628	     58.86079102	     73.71000939	     23.45765389	      4.92576843
      0.06000000	     -2.21476758	     -6.55498665	     95.22667504	      0.23380444	      0.76052016	      0.62238226	      0.07453453	     -0.97390006	      8.16477282	      1.45215194	      0.02534483	     18.40943216	    -12.08871853	      0.00000000	      3.91378706	      0.61223465	     -9.65872821	      7.97665406	      0.13921888	     24.16011777	     12.71593991	      0.00000000	      0.14750954	      0.04024003	     -0.61451679	      0.27393997	      0.05351923	     -0.65292409	      0.24234343	      0.09783960	     -0.65292409	      0.16858866	      0.09783960	     -0.53770219	      0.13697736	      0.08205746	     -0.49929489	      0.08428695	      0.06233180	     -0.46088759	      1.05364591	      0.45520322	     -3.41775802	      0.00000000	      0.00000000	     17.24548251	     -1.05618190	      6.65586179	     22.36871210	    -17.79137509	     75.42334081	     63.16745467	     88.62026267	      9.13587078	      3.96403525	     20.00397983	    -19.12231002	     68.86939324	     59.53327881	     77.69970911	     25.73524303	      4.38154917
      0.08000000	     -2.34125343	     -6.64101604	     94.60891957	      0.23431947	      0.75992600	      0.62327811	      0.31625572	     -1.13953925	      9.20991075	      1.53868581	      0.02685513	     18.46487072	    -12.77336127	      0.00000000	      4.03403958	      0.73297778	    -10.29741903	      8.10123117	      0.14139316	     24.35288239	     12.71438048	      0.00000000	      0.13939752	      0.03517358	     -0.60492330	      0.25887514	      0.04678086	     -0.64273101	      0.22901619	      0.08552104	     -0.64273101	      0.15931743	      0.08552104	     -0.52930789	      0.12944454	      0.07172596	     -0.49150018	      0.07965174	      0.05448388	     -0.45369248	      0.99570255	      0.39789057	     -3.36440192	      0.00000000	      0.00000000	     17.52105795	     -1.43157055	      6.45823492	     22.81632193	    -17.79228194	     75.95497800	     63.49846043	     88.57405173	      9.69101749	      3.80834880	     19.67155175	    -19.38019969	     67.54627216	     60.14941763	     80.36397219	     27.41764168	      3.90242359
